<svg width="106" height="30" viewBox="0 0 106 30" xmlns="http://www.w3.org/2000/svg">
  <path d="M80.649 8.993c-.624.023-2.09.43-2.353 4.505-.264 4.073.816 5.127 1.729 5.247.912.12 2.52-1.341 2.616-5.679.097-4.337-1.992-4.073-1.992-4.073M60.862 21.52c-3.61 3.118-3.921 5.346-3.921 5.346s-.357 1.827 1.381 1.916c2.089.212 2.439-2.324 2.495-4.545.027-1.048.045-2.717.045-2.717M58.723 8.866c-.633.024-2.228.58-2.587 4.523-.268 4.127.828 5.195 1.754 5.317.927.121 2.56-1.36 2.657-5.754.098-4.394-1.824-4.086-1.824-4.086m-12.771-.018c-.624.024-2.09.431-2.353 4.505-.264 4.074.816 5.128 1.729 5.248.912.12 2.52-1.342 2.616-5.68.097-4.337-1.992-4.073-1.992-4.073m60.03 6.928c0 4.627-2.804 4.553-2.804 4.553-2.667.095-3.35-2.724-3.518-5.59-.126-2.154 0-4.553 0-4.553s-.018-.11-.092 0c-.891 1.62-1.498 4.077-1.795 5.979-.216 1.38-.238 2.535-.238 2.535s.037.26-.184.408c-1.447.666-2.381-.278-2.71-1.333-.44-1-.697-7.015-.697-7.33 0-.314-.257-.073-.257-.073-1.997 3.35-2.015 8.273-2.015 9.272 0 1-1.704.685-1.704.685-1.448-.11-1.392-.814-1.392-.814l-.066-1.195c-.503.928-1.438 2.133-2.876 2.04-2.176-.14-2.598-2.394-2.63-2.775 0 0-1.083 2.807-4.064 2.775-2.025-.032-2.837-2.125-2.837-2.125s-.813 2.188-2.805 2.109c-1.993-.08-3.634-2.378-3.507-5.359.127-2.98.59-4.47.59-4.47s.16-.302-.112-.318c-.27-.016-1.992.032-1.992.032s-.972 3.9-5.084 8.751c0 0 .033 1.517.031 3.203-.002 3.19-.398 7.468-4.717 7.817-3.737-.253-3.526-3.134-3.526-3.134-.09-.846.445-2.406 2.673-4.5a231.184 231.184 0 0 1 3.119-2.896l-.089-1.337c-1.426 2.362-3.61 2.228-3.61 2.228s-1.685.343-3.103-2.165c-.417.859-1.364 2.324-2.913 2.154-2.177-.24-2.61-2.412-2.641-2.796 0 0-1.089 2.828-4.082 2.796-2.033-.032-2.85-2.14-2.85-2.14-.235-.428-.416-1.076-.511-1.457a3.955 3.955 0 0 1-.09.261c-.462 1.18-1.604 3.237-3.355 3.263-3.218 0-3.354-4.991-3.354-4.991-.93 2.214-2.753 5.05-6.145 5.03-3.393-.02-3.8-1.243-3.8-1.418 0-.175-.058-.369.33-.932.387-.563.717-.796.988-.796s.756.408.756.408.737.718 1.57.718c1.067-.039 1.3-.893 1.377-1.767.078-.874-.543-1.807-1.396-2.584-.853-.776-1.512-1.359-1.512-1.359-1.221 2.06-2.152 3.457-2.83 4.662-1.649 2.68-3.284 3.094-3.916 3.01-.873-.116-1.707-1.01-1.745-3.613-.04-2.602.193-7.05.193-7.283 0-.233-.212-.117-.212-.117-3.258 3.457-4.227 10.566-4.227 10.702 0 .137-.29.291-.581.291s.097-.019-1.067-.058c-1.163-.038-1.085-2.252-1.085-2.252L10.95 7.34c.02-.35.35-.504 1.454-.213 1.105.291 1.066.66 1.066.66l-.038 6.138c2.85-8.41 5.001-7.09 6.3-6.449 1.3.641 1.125 1.574 1.125 1.574s-.136 4.623-.194 6.254c-.058 1.632.174 2.273.543 2.331.91.214 4.148-6.04 4.148-6.04-1.434-1.555-.651-3.451.465-4.274.759-.56 1.687-.621 1.687-.621s1.454-.078 1.415 1.145c.039 1.34-1.454 2.972-1.454 2.972 2.889 2.06 4.246 3.147 4.46 4.74.095.763-.078 1.243-.078 1.243 2.055-1.787 2.21-3.788 2.21-3.788l.039-6.681-3.044-.039s-.232-.02-.271-.583c0-1.068.562-1.515.562-1.515l2.908.039s.097-3.01.116-3.497c.097-.699.543-.796 1.822-.466 1.28.33 1.28.621 1.28.621l-.156 3.517s3.2.155 3.626.194c.427.039.562.155.465.873-.097.72-.523.894-.523.894l-3.606.078-.252 7.75c0 1.204.058 4.04 1.182 4.02 1.57.078 2.502-3.437 2.502-3.437l.017-.028a14.099 14.099 0 0 1 .072-1.943c.297-2.825 1.557-6.135 4.449-6.135 0 0 1.76-.063 2.69 1.694l.031-.64s-.064-.766 1.153-.574c1.216.191 1.632.67 1.6 1.054 0 0-.224 4.92-.095 7.828.162 1.689.453 2.687 1.312 2.62.74-.108 1.266-1.121 1.585-1.984-1.076-8.946 3.82-10.031 3.82-10.031s2.168-.159 3.156 1.649l.031-.603s-.095-.792 1.053-.57c0 0 .478.063.988.253s.669.317.669.793c0 .475-.096 8.835-.096 8.835s2.55-3.425 3.188-6.754c0 0-.892-.666-.828-1.617.063-.952.541-2.093 1.944-2.093s1.467 1.236 1.244 2.093c0 0 1.179-.16 2.199-.413 1.02-.253 2.39-.412 2.486 1.174.064.57-.191 1.014-.191 1.014s-.797 3.52-.67 4.947c.128 1.427.511 3.583 1.626 3.329 1.116-.253 1.499-1.838 1.499-1.838s-.449-1.835-.224-3.965c.297-2.803 1.55-6.087 4.43-6.087 0 0 1.754-.064 2.68 1.68l.03-.634s-.063-.761 1.149-.571c1.21.19 1.625.666 1.593 1.046 0 0-.223 4.883-.095 7.77.162 1.676.45 2.667 1.307 2.599.825-.024 1.52-1.419 1.95-2.556l-.005-.42.028-8.246c.069-.472.495-.5.495-.5l.99.153c1.387.208 1.194.735 1.194.735v4.664c1.03-3.164 1.526-4.372 1.993-5.177.398-.686 1.704-.236 1.704-.236s1.415.375 1.443 1.68c-.041 2.151.261 5.656.261 5.656.005.056.053.073.08.049.021-.02.023-.077.023-.077.281-2.255 1.564-5.957 2.077-6.92.513-.962 1.997-.277 1.997-.277 1.777.61 1.54 1.665 1.54 1.665-.532 9.051.585 9.643 1.245 9.699.66.055 1.008-.796 1.154-1.204.147-.406.33-1.295.44-1.646a.531.531 0 0 1 .458-.37s.403.092.403.425M2.795 2.03C4.8.063 6.04.004 6.04.004s.391-.06 1.34.274c.947.332.986.841.986.841v14.388c.122 4.027-.88 5.575-2.082 6.651-.683.555-1.232.626-1.3.626-.165 0-.292-.02-.322-.244-.029-.225.176-.812.176-.812.606-1.536.557-4.196.557-4.196l.059-15.503s.049-.284-.195-.196c-2.366 2.035-2.659 4.9-2.737 6.29-.04 2.083.865 3.159.865 3.159s.234.205.205.498c0 .397-.367.367-.367.367-.889-.083-2.306-1.09-2.814-2.303C-.011 8.948 0 7.98 0 7.98.03 6.762.792 3.994 2.795 2.03" fill="#1D1D1B" fill-rule="evenodd"/>
</svg>